:FULLY-SPECIFIED
:FORCE-ALL-JOINTS-BE-3DOF
:DEGREES
189
root -0.808214 17.1526 7.32015 3.84331 17.7596 3.20774
lfemur -1.24237 -0.524164 -28.1621
ltibia 32.8012 0 0
lfoot -13.1036 -0.815802 -0.0256448
ltoes 0.928324 0 0
rfemur -26.6623 3.75348 15.5436
rtibia 19.9156 0 0
rfoot -7.29089 -11.3293 -0.0313105
rtoes -2.69932 0 0
lowerback 7.23182 -1.30614 -4.96003
upperback 0.732729 -2.06963 2.21269
thorax -2.92117 -0.962252 5.28921
lowerneck -15.1161 -3.1085 -9.68634
upperneck 21.7472 -2.77551 3.86008
head 9.58365 -1.65662 2.60722
lclavicle 3.40171e-14 -1.63003e-14 -3.37276e-30
lhumerus -29.5067 0.816111 87.1889
lradius 39.5928 0 0
lwrist -3.37225 0 0
lhand -15.0015 25.3624 0.00729844
lfingers 7.12502 0 0
lthumb 11.1633 55.0448 0.00690941
rclavicle 3.40171e-14 -1.63003e-14 -3.37276e-30
rhumerus -37.2829 -14.0055 -77.5031
rradius 30.4048 0 0
rwrist 6.39641 0 0
rhand -16.3393 11.9441 -0.0029715
rfingers 7.12502 0 0
rthumb 9.87287 -17.8042 -0.00282637
190
root -0.760564 17.1354 7.51547 3.97204 17.8703 3.08641
lfemur -0.931378 -0.427715 -27.8043
ltibia 32.2205 0 0
lfoot -13.3785 -0.972655 0.0322584
ltoes -1.54218 0 0
rfemur -26.1997 4.36472 15.6681
rtibia 18.4109 0 0
rfoot -8.29044 -12.3602 -0.0334021
rtoes -4.64592 0 0
lowerback 7.05996 -1.33895 -5.03288
upperback 0.755994 -2.10636 2.33426
thorax -2.77462 -0.986283 5.45181
lowerneck -15.1874 -3.04256 -9.56749
upperneck 21.7639 -2.66362 3.67987
head 9.5896 -1.61569 2.53864
lclavicle 8.22965e-15 -8.26947e-15 4.18679e-30
lhumerus -29.1507 1.18903 87.1622
lradius 39.5992 0 0
lwrist -3.64026 0 0
lhand -15.2569 26.9321 0.00139623
lfingers 7.12502 0 0
lthumb 10.917 56.6276 0.00120858
rclavicle 8.22965e-15 -8.26947e-15 4.18679e-30
rhumerus -37.1131 -13.3582 -77.849
rradius 30.5364 0 0
rwrist 5.20952 0 0
rhand -16.9663 11.145 0.00245695
rfingers 7.12502 0 0
rthumb 9.26789 -18.6312 0.00237473
191
root -0.712736 17.1203 7.71899 4.03053 18.1106 3.24397
lfemur -0.432452 -0.621683 -27.6843
ltibia 31.6069 0 0
lfoot -13.5467 -1.22515 0.0795452
ltoes -2.9715 0 0
rfemur -25.5726 4.9489 15.4874
rtibia 17.4233 0 0
rfoot -8.97338 -13.2025 -0.0356847
rtoes -6.59672 0 0
lowerback 7.08429 -1.34798 -5.25617
upperback 0.754923 -2.14046 2.27945
thorax -2.75861 -1.00063 5.52698
lowerneck -15.3652 -3.07815 -9.42223
upperneck 22.0445 -2.73323 3.68606
head 9.72453 -1.63813 2.51072
lclavicle 6.98132e-14 -8.18992e-15 -2.34366e-30
lhumerus -29.0171 1.1453 86.9827
lradius 39.5598 0 0
lwrist -3.66652 0 0
lhand -15.6964 27.8852 -0.00344852
lfingers 7.12502 0 0
lthumb 10.493 57.602 -0.00355373
rclavicle 6.98132e-14 -8.18992e-15 -2.34366e-30
rhumerus -37.1603 -13.5319 -77.845
rradius 30.4147 0 0
rwrist 5.18205 0 0
rhand -17.0654 11.33 0.00235075
rfingers 7.12502 0 0
rthumb 9.17226 -18.4505 0.00227176
192
root -0.664982 17.102 7.92232 4.08926 18.3293 3.41999
lfemur 0.191216 -1.1109 -27.6564
ltibia 30.7871 0 0
lfoot -13.5243 -1.31668 0.10581
ltoes -3.76892 0 0
rfemur -25.2079 4.6253 15.6855
rtibia 17.2155 0 0
rfoot -9.21014 -12.9177 -0.0409111
rtoes -8.09907 0 0
lowerback 7.19234 -1.35127 -5.45142
upperback 0.691885 -2.17051 2.21968
thorax -2.85213 -1.00775 5.58606
lowerneck -15.2267 -3.1208 -9.33074
upperneck 22.1574 -2.83428 3.70435
head 9.74407 -1.67718 2.49153
lclavicle 2.34417e-14 -1.47101e-14 3.24169e-30
lhumerus -29.1609 0.987862 86.8107
lradius 39.7673 0 0
lwrist -3.45123 0 0
lhand -15.6416 28.281 -0.00855412
lfingers 7.12502 0 0
lthumb 10.5458 57.9937 -0.00873959
rclavicle 2.34417e-14 -1.47101e-14 3.24169e-30
rhumerus -37.3693 -14.194 -77.4832
rradius 30.2326 0 0
rwrist 5.87263 0 0
rhand -16.3397 11.9008 -0.0050648
rfingers 7.12502 0 0
rthumb 9.87239 -17.8471 -0.00477746
193
root -0.611534 17.0843 8.12503 4.28805 18.5722 3.80203
lfemur 0.649229 -1.47769 -27.8033
ltibia 30.2114 0 0
lfoot -13.4244 -1.55048 0.116759
ltoes -5.47603 0 0
rfemur -24.9861 3.36435 16.0823
rtibia 17.4131 0 0
rfoot -9.11702 -11.5627 -0.0347442
rtoes -8.46118 0 0
lowerback 7.23746 -1.45546 -5.86448
upperback 0.619277 -2.34596 2.21126
thorax -2.89276 -1.0877 5.82992
lowerneck -15.1862 -3.04212 -9.34711
upperneck 22.3023 -2.70863 3.63094
head 9.77687 -1.63173 2.48587
lclavicle 2.03407e-14 -4.13472e-15 -2.59219e-30
lhumerus -29.3733 1.3239 86.7133
lradius 39.9559 0 0
lwrist -3.31695 0 0
lhand -15.5604 27.7978 -0.00590566
lfingers 7.12502 0 0
lthumb 10.624 57.505 -0.00647424
rclavicle 2.03407e-14 -4.13472e-15 -2.59219e-30
rhumerus -37.4564 -14.4704 -77.1322
rradius 29.9798 0 0
rwrist 6.19341 0 0
rhand -15.733 12.4476 0.000696116
rfingers 7.12502 0 0
rthumb 10.4576 -17.2693 0.00121843
194
root -0.558813 17.0722 8.324 4.28045 18.616 3.9002
lfemur 0.864295 -1.53781 -27.6599
ltibia 30.1312 0 0
lfoot -13.3703 -1.81319 0.123761
ltoes -7.92875 0 0
rfemur -24.5689 2.37082 16.7047
rtibia 17.6531 0 0
rfoot -8.82558 -10.3548 -0.0263245
rtoes -5.68544 0 0
lowerback 7.29272 -1.50302 -5.96028
upperback 0.611956 -2.42425 2.21755
thorax -2.90325 -1.12274 5.90693
lowerneck -15.3949 -2.98385 -9.22274
upperneck 22.4521 -2.5989 3.46711
head 9.85538 -1.58879 2.42104
lclavicle -6.32136e-15 -3.9757e-15 -3.13704e-30
lhumerus -29.2992 2.05141 86.5492
lradius 39.76 0 0
lwrist -3.50407 0 0
lhand -15.5663 28.5221 -0.00935459
lfingers 7.12502 0 0
lthumb 10.6184 58.23 -0.00972385
rclavicle -6.32136e-15 -3.9757e-15 -3.13704e-30
rhumerus -37.3793 -14.8232 -76.8947
rradius 29.6322 0 0
rwrist 6.59397 0 0
rhand -15.6707 12.8365 0.00390554
rfingers 7.12502 0 0
rthumb 10.5176 -16.8759 0.00457439
195
root -0.511767 17.053 8.51703 4.10052 18.4315 3.27465
lfemur 0.850844 -1.7655 -26.9305
ltibia 30.0786 0 0
lfoot -12.9874 -1.7728 0.110301
ltoes -7.52208 0 0
rfemur -24.4824 2.27264 17.8324
rtibia 18.4014 0 0
rfoot -9.20972 -9.80682 -0.0214904
rtoes 6.27611 0 0
lowerback 7.35641 -1.3874 -5.43666
upperback 0.56359 -2.23027 2.37688
thorax -3.02253 -1.02495 5.77397
lowerneck -15.6021 -3.09618 -9.27637
upperneck 22.558 -2.73102 3.51352
head 9.94299 -1.64761 2.42819
lclavicle -8.78928e-14 -1.145e-14 7.84872e-30
lhumerus -28.9972 2.59732 86.4724
lradius 39.4467 0 0
lwrist -3.71944 0 0
lhand -15.4231 29.9643 -0.0213787
lfingers 7.12502 0 0
lthumb 10.7564 59.6641 -0.0215202
rclavicle -8.78928e-14 -1.145e-14 7.84872e-30
rhumerus -37.2182 -15.2169 -76.6796
rradius 29.2928 0 0
rwrist 6.68692 0 0
rhand -15.5543 12.7745 0.00378226
rfingers 7.12502 0 0
rthumb 10.6299 -16.9338 0.00416435
196
root -0.462776 17.0306 8.72147 3.90887 18.2352 2.54017
lfemur 0.751883 -2.05839 -26.1279
ltibia 30.131 0 0
lfoot -12.5709 -1.54386 0.0912443
ltoes -7.55158 0 0
rfemur -24.4478 2.52505 18.9898
rtibia 19.3092 0 0
rfoot -8.40116 -9.16306 -0.0155608
rtoes -7.3734 0 0
lowerback 7.27414 -1.25084 -4.88354
upperback 0.526707 -1.98973 2.56043
thorax -3.04767 -0.912862 5.627
lowerneck -15.5165 -3.20434 -9.37839
upperneck 22.5387 -2.90293 3.67648
head 9.93799 -1.71802 2.48177
lclavicle 1.88845e-14 6.99722e-15 -2.02759e-32
lhumerus -28.8406 3.11217 86.3564
lradius 39.2486 0 0
lwrist -3.84847 0 0
lhand -15.0483 30.1638 -0.0224087
lfingers 7.12502 0 0
lthumb 11.1178 59.8436 -0.0227099
rclavicle 1.88845e-14 6.99722e-15 -2.02759e-32
rhumerus -37.0912 -15.5967 -76.5352
rradius 28.9737 0 0
rwrist 6.92426 0 0
rhand -15.6945 12.4407 -0.000598954
rfingers 7.12502 0 0
rthumb 10.4948 -17.2761 -0.00035644
197
root -0.378748 17.0061 8.9051 4.19659 18.7162 3.14522
lfemur 0.800606 -2.64535 -26.6318
ltibia 30.3494 0 0
lfoot -12.0953 -1.82519 0.0834706
ltoes -8.84058 0 0
rfemur -24.1257 0.546798 19.1438
rtibia 20.1689 0 0
rfoot -8.31103 -7.31926 0.0278805
rtoes -7.81243 0 0
lowerback 7.28146 -1.44412 -4.80658
upperback 0.479641 -2.25086 2.28109
thorax -3.06093 -1.04352 5.31024
lowerneck -15.4754 -3.2096 -9.48748
upperneck 22.6205 -2.92804 3.856
head 9.96639 -1.7201 2.56352
lclavicle 2.10016e-14 1.23247e-14 1.6489e-30
lhumerus -28.8714 3.69495 86.0724
lradius 38.9858 0 0
lwrist -3.87849 0 0
lhand -15.0967 29.6093 -0.0224318
lfingers 7.12502 0 0
lthumb 11.071 59.2884 -0.0233572
rclavicle 2.10016e-14 1.23247e-14 1.6489e-30
rhumerus -36.9687 -16.0554 -76.3609
rradius 28.5703 0 0
rwrist 7.37648 0 0
rhand -15.9388 12.5066 -0.00275273
rfingers 7.12502 0 0
rthumb 10.2591 -17.2215 -0.00234772
198
root -0.309697 16.9943 9.11798 4.31794 18.7923 3.41207
lfemur 0.774703 -2.83422 -26.6157
ltibia 30.4884 0 0
lfoot -11.3541 -2.30101 0.0738029
ltoes -9.05162 0 0
rfemur -23.5649 0.139407 19.3391
rtibia 20.9985 0 0
rfoot -8.65438 -6.39014 0.051406
rtoes -9.14139 0 0
lowerback 7.05645 -1.43644 -4.93059
upperback 0.49857 -2.24415 2.16838
thorax -2.89886 -1.04544 5.24734
lowerneck -15.5199 -3.31333 -9.58939
upperneck 22.7068 -3.08372 4.02561
head 10.0205 -1.78103 2.62068
lclavicle 2.25323e-14 -8.82604e-15 1.36576e-31
lhumerus -29.079 3.85395 85.844
lradius 38.9371 0 0
lwrist -3.72232 0 0
lhand -15.2291 29.2814 -0.0210351
lfingers 7.12502 0 0
lthumb 10.9431 58.964 -0.0226509
rclavicle 2.25323e-14 -8.82604e-15 1.36576e-31
rhumerus -36.8747 -16.4835 -76.1513
rradius 28.144 0 0
rwrist 7.59222 0 0
rhand -16.1855 12.5641 -0.00303006
rfingers 7.12502 0 0
rthumb 10.0211 -17.1743 -0.0023892
